<svg xmlns="http://www.w3.org/2000/svg" width="1000" height="620" viewBox="0 0 1000 620">
<rect width="100%" height="100%" fill="#ffffff"/>
<text x="500.0" y="34" text-anchor="middle" font-family="Arial" font-size="24" font-weight="700">Sredni czas operacji CRUD wedlug bazy</text>
<line x1="90" y1="490.0" x2="960" y2="490.0" stroke="#e5e7eb"/>
<text x="80" y="494.0" text-anchor="end" font-family="Arial" font-size="12" fill="#374151">0.0</text>
<line x1="90" y1="406.0" x2="960" y2="406.0" stroke="#e5e7eb"/>
<text x="80" y="410.0" text-anchor="end" font-family="Arial" font-size="12" fill="#374151">757.1</text>
<line x1="90" y1="322.0" x2="960" y2="322.0" stroke="#e5e7eb"/>
<text x="80" y="326.0" text-anchor="end" font-family="Arial" font-size="12" fill="#374151">1514.1</text>
<line x1="90" y1="238.0" x2="960" y2="238.0" stroke="#e5e7eb"/>
<text x="80" y="242.0" text-anchor="end" font-family="Arial" font-size="12" fill="#374151">2271.2</text>
<line x1="90" y1="154.0" x2="960" y2="154.0" stroke="#e5e7eb"/>
<text x="80" y="158.0" text-anchor="end" font-family="Arial" font-size="12" fill="#374151">3028.3</text>
<line x1="90" y1="70.0" x2="960" y2="70.0" stroke="#e5e7eb"/>
<text x="80" y="74.0" text-anchor="end" font-family="Arial" font-size="12" fill="#374151">3785.3</text>
<text x="198.8" y="538" text-anchor="middle" font-family="Arial" font-size="13" fill="#111827">CREATE</text>
<rect x="111.8" y="200.1" width="35.7" height="289.9" fill="#3366cc"/>
<rect x="155.2" y="485.7" width="35.7" height="4.3" fill="#dc3912"/>
<rect x="198.8" y="487.9" width="35.7" height="2.1" fill="#109618"/>
<rect x="242.2" y="383.4" width="35.7" height="106.6" fill="#ff9900"/>
<text x="416.2" y="538" text-anchor="middle" font-family="Arial" font-size="13" fill="#111827">DELETE</text>
<rect x="329.2" y="70.0" width="35.7" height="420.0" fill="#3366cc"/>
<rect x="372.8" y="487.2" width="35.7" height="2.8" fill="#dc3912"/>
<rect x="416.2" y="481.3" width="35.7" height="8.7" fill="#109618"/>
<rect x="459.8" y="479.2" width="35.7" height="10.8" fill="#ff9900"/>
<text x="633.8" y="538" text-anchor="middle" font-family="Arial" font-size="13" fill="#111827">READ</text>
<rect x="546.8" y="453.7" width="35.7" height="36.3" fill="#3366cc"/>
<rect x="590.2" y="393.8" width="35.7" height="96.2" fill="#dc3912"/>
<rect x="633.8" y="383.6" width="35.7" height="106.4" fill="#109618"/>
<rect x="677.2" y="479.7" width="35.7" height="10.3" fill="#ff9900"/>
<text x="851.2" y="538" text-anchor="middle" font-family="Arial" font-size="13" fill="#111827">UPDATE</text>
<rect x="764.2" y="351.9" width="35.7" height="138.1" fill="#3366cc"/>
<rect x="807.8" y="488.0" width="35.7" height="2.0" fill="#dc3912"/>
<rect x="851.2" y="487.7" width="35.7" height="2.3" fill="#109618"/>
<rect x="894.8" y="485.4" width="35.7" height="4.6" fill="#ff9900"/>
<rect x="90" y="576" width="14" height="14" fill="#3366cc"/>
<text x="110" y="588" font-family="Arial" font-size="13" fill="#111827">cassandra</text>
<rect x="240" y="576" width="14" height="14" fill="#dc3912"/>
<text x="260" y="588" font-family="Arial" font-size="13" fill="#111827">mariadb</text>
<rect x="390" y="576" width="14" height="14" fill="#109618"/>
<text x="410" y="588" font-family="Arial" font-size="13" fill="#111827">mongodb</text>
<rect x="540" y="576" width="14" height="14" fill="#ff9900"/>
<text x="560" y="588" font-family="Arial" font-size="13" fill="#111827">postgres</text>
<text x="525.0" y="604" text-anchor="middle" font-family="Arial" font-size="13" fill="#374151">operation</text>
<text x="22" y="280.0" transform="rotate(-90 22 280.0)" text-anchor="middle" font-family="Arial" font-size="13" fill="#374151">avg_ms</text>
</svg>